<svg width="2592" height="2592" viewBox="0 0 2592 2592" fill="none" xmlns="http://www.w3.org/2000/svg">
<g clip-path="url(#clip0_19_2)">
<path d="M2245.89 1849.55C2266.14 1885.92 2306.8 1903.7 2348.43 1903.5C2419.31 1903.18 2476.13 1963.56 2470.01 2035.61C2464.63 2099.44 2407.08 2146.5 2343.01 2146.5H1944V2187H1053H729H283.5C214.245 2187 158.517 2129.04 162.162 2058.98C165.604 1993.25 224.572 1944 290.385 1944H324C373.207 1944 412.128 1900.14 403.906 1849.39C397.426 1809.58 360.004 1782 319.666 1782H121.5C52.245 1782 -3.48302 1724.04 0.161977 1653.98C3.60448 1588.25 62.5725 1539 128.385 1539H384.75C440.68 1539 486 1493.68 486 1437.75C486 1381.82 440.68 1336.5 384.75 1336.5C328.819 1336.5 283.5 1291.18 283.5 1235.25C283.5 1179.32 328.819 1134 384.75 1134H729V850.5H425.25C344.452 850.5 279.409 782.865 283.702 701.136C287.712 624.47 356.521 567 433.269 567H729V405H1701H1944H2288.25C2369.05 405 2434.09 472.635 2429.8 554.364C2425.79 631.03 2356.98 688.5 2280.23 688.5H2166.75C2085.95 688.5 2020.91 756.135 2025.2 837.864C2029.21 914.53 2098.02 972 2174.77 972H2268C2339.97 972 2397.36 1034.61 2388.61 1108.32C2381.36 1169.44 2326 1212.49 2264.52 1215.04C2216.04 1217.07 2178.58 1261.74 2188.62 1312.48C2196.23 1350.88 2232.48 1377 2271.6 1377H2450.25C2531.05 1377 2596.09 1444.64 2591.8 1526.36C2587.79 1603.03 2518.98 1660.5 2442.23 1660.5H2349C2260.22 1660.5 2193.72 1755.67 2245.89 1849.55ZM101.25 1336.5C157.18 1336.5 202.5 1291.18 202.5 1235.25C202.5 1179.32 157.18 1134 101.25 1134C45.3195 1134 -2.28859e-05 1179.32 -2.28859e-05 1235.25C-2.28859e-05 1291.18 45.3195 1336.5 101.25 1336.5Z" fill="url(#paint0_radial_19_2)"/>
<path d="M2025 2349H648C580.892 2349 526.5 2294.61 526.5 2227.5V364.5C526.5 297.392 580.892 243 648 243H1488.66C1520.9 243 1551.8 255.798 1574.56 278.6L2110.9 814.941C2133.7 837.702 2146.5 868.604 2146.5 900.841V2227.5C2146.5 2294.61 2092.11 2349 2025 2349Z" fill="url(#paint1_linear_19_2)"/>
<path d="M2110.9 814.941L1574.56 278.599C1564.23 268.272 1552.04 260.293 1539 254.299V729C1539 796.108 1593.39 850.5 1660.5 850.5H2135.2C2129.25 837.459 2121.27 825.268 2110.9 814.941Z" fill="url(#paint2_linear_19_2)"/>
<path d="M1660.5 850.5C1593.39 850.5 1539 796.108 1539 729V850.5C1539 917.609 1593.39 972 1660.5 972H2146.5V900.842C2146.5 883.264 2142.37 866.214 2135.2 850.5H1660.5Z" fill="url(#paint3_linear_19_2)"/>
<path d="M1229.34 1100H821.207C780.208 1100 747 1071.36 747 1036C747 1000.64 780.208 972 821.207 972H1229.34C1270.34 972 1303.55 1000.64 1303.55 1036C1303.55 1071.36 1270.34 1100 1229.34 1100ZM1451.97 1964H821.207C780.208 1964 747 1935.36 747 1900C747 1864.64 780.208 1836 821.207 1836H1451.97C1492.96 1836 1526.17 1864.64 1526.17 1900C1526.17 1935.36 1492.96 1964 1451.97 1964ZM1414.86 1580H1748.79C1789.79 1580 1823 1608.64 1823 1644C1823 1679.36 1789.79 1708 1748.79 1708H1414.86C1373.86 1708 1340.66 1679.36 1340.66 1644C1340.66 1608.64 1373.86 1580 1414.86 1580ZM821.207 1580H1155.14C1196.14 1580 1229.34 1608.64 1229.34 1644C1229.34 1679.36 1196.14 1708 1155.14 1708H821.207C780.208 1708 747 1679.36 747 1644C747 1608.64 780.208 1580 821.207 1580ZM821.207 1324H1414.86C1455.86 1324 1489.07 1352.64 1489.07 1388C1489.07 1423.36 1455.86 1452 1414.86 1452H821.207C780.208 1452 747 1423.36 747 1388C747 1352.64 780.208 1324 821.207 1324ZM1674.59 1324H1748.79C1789.79 1324 1823 1352.64 1823 1388C1823 1423.36 1789.79 1452 1748.79 1452H1674.59C1633.59 1452 1600.38 1423.36 1600.38 1388C1600.38 1352.64 1633.59 1324 1674.59 1324Z" fill="#F1FCFF"/>
<path d="M957.463 405.004C939.898 405.085 923.123 406.583 908.363 409.195C864.881 416.876 856.986 432.953 856.986 462.602V501.759H959.739V514.811H856.986H818.424C788.561 514.811 762.413 532.759 754.234 566.901C744.799 606.037 744.381 630.457 754.234 671.321C761.538 701.738 778.981 723.411 808.843 723.411H844.172V676.47C844.172 642.558 873.516 612.645 908.363 612.645H1011C1039.56 612.645 1062.37 589.124 1062.37 560.435V462.602C1062.37 434.758 1038.88 413.842 1011 409.195C993.344 406.257 975.029 404.922 957.463 405.004ZM901.896 436.497C912.509 436.497 921.177 445.305 921.177 456.135C921.177 466.927 912.509 475.654 901.896 475.654C891.244 475.654 882.614 466.927 882.614 456.135C882.614 445.305 891.244 436.497 901.896 436.497Z" fill="url(#paint4_linear_19_2)"/>
<path d="M1075.19 514.812V560.435C1075.19 595.806 1045.19 625.577 1011 625.577H908.363C880.25 625.577 856.986 649.636 856.986 677.787V775.62C856.986 803.464 881.201 819.842 908.363 827.83C940.888 837.393 972.079 839.121 1011 827.83C1036.86 820.341 1062.37 805.269 1062.37 775.62V736.463H959.739V723.411H1062.37H1113.75C1143.61 723.411 1154.74 702.583 1165.12 671.321C1175.85 639.137 1175.4 608.187 1165.12 566.901C1157.74 537.176 1143.65 514.812 1113.75 514.812H1075.19ZM1017.46 762.568C1028.11 762.568 1036.74 771.295 1036.74 782.087C1036.74 792.917 1028.11 801.725 1017.46 801.725C1006.85 801.725 998.181 792.917 998.181 782.087C998.181 771.295 1006.85 762.568 1017.46 762.568Z" fill="url(#paint5_linear_19_2)"/>
<path d="M796.072 2130.06C807.303 2130.06 815.799 2132.6 821.561 2137.68C827.371 2142.71 830.276 2149.98 830.276 2159.5C830.276 2169.03 827.371 2176.33 821.561 2181.4C815.799 2186.48 807.303 2189.02 796.072 2189.02H785.086V2201.99H800.979C802.151 2201.99 803.055 2202.21 803.689 2202.64C804.324 2203.04 804.788 2203.77 805.081 2204.84C805.423 2205.92 805.594 2207.48 805.594 2209.53C805.594 2211.58 805.423 2213.14 805.081 2214.22C804.788 2215.29 804.324 2216.02 803.689 2216.41C803.055 2216.8 802.151 2217 800.979 2217H756.009C754.837 2217 753.934 2216.8 753.299 2216.41C752.664 2216.02 752.176 2215.29 751.834 2214.22C751.541 2213.14 751.395 2211.58 751.395 2209.53C751.395 2207.48 751.541 2205.92 751.834 2204.84C752.176 2203.77 752.664 2203.04 753.299 2202.64C753.934 2202.21 754.837 2201.99 756.009 2201.99H766.775V2145.08H756.009C754.837 2145.08 753.934 2144.88 753.299 2144.49C752.664 2144.1 752.176 2143.37 751.834 2142.29C751.541 2141.22 751.395 2139.66 751.395 2137.61C751.395 2135.55 751.541 2133.99 751.834 2132.92C752.176 2131.84 752.664 2131.11 753.299 2130.72C753.934 2130.28 754.837 2130.06 756.009 2130.06H796.072ZM785.086 2173.27H793.802C799.612 2173.27 803.982 2172.15 806.912 2169.91C809.891 2167.66 811.38 2164.19 811.38 2159.5C811.38 2154.82 809.891 2151.38 806.912 2149.18C803.982 2146.93 799.612 2145.81 793.802 2145.81H785.086V2173.27ZM919.339 2149.32C920.511 2149.32 921.414 2149.54 922.049 2149.98C922.684 2150.37 923.147 2151.11 923.44 2152.18C923.782 2153.25 923.953 2154.82 923.953 2156.87C923.953 2158.92 923.782 2160.48 923.44 2161.56C923.147 2162.63 922.684 2163.36 922.049 2163.75C921.414 2164.14 920.511 2164.34 919.339 2164.34H914.651L886.6 2221.17C883.182 2228.06 879.91 2233.28 876.785 2236.85C873.709 2240.46 870.169 2243 866.165 2244.47C862.21 2245.98 857.083 2246.83 850.784 2247.03C849.026 2247.08 847.684 2246.42 846.756 2245.05C845.877 2243.68 845.438 2241.19 845.438 2237.58C845.438 2235.09 845.755 2233.31 846.39 2232.23C847.073 2231.16 848.025 2230.57 849.246 2230.48C853.104 2230.23 856.229 2229.5 858.621 2228.28C861.062 2227.06 863.26 2225.11 865.213 2222.42C867.215 2219.78 869.607 2215.78 872.391 2210.41L849.979 2164.34H844.485C843.313 2164.34 842.41 2164.14 841.775 2163.75C841.141 2163.36 840.652 2162.63 840.311 2161.56C840.018 2160.48 839.871 2158.92 839.871 2156.87C839.871 2154.82 840.018 2153.25 840.311 2152.18C840.652 2151.11 841.141 2150.37 841.775 2149.98C842.41 2149.54 843.313 2149.32 844.485 2149.32H874.075C875.247 2149.32 876.15 2149.54 876.785 2149.98C877.42 2150.37 877.884 2151.11 878.177 2152.18C878.519 2153.25 878.689 2154.82 878.689 2156.87C878.689 2158.92 878.519 2160.48 878.177 2161.56C877.884 2162.63 877.42 2163.36 876.785 2163.75C876.15 2164.14 875.247 2164.34 874.075 2164.34H869.681L882.425 2192.17L895.169 2164.34H891.214C890.042 2164.34 889.139 2164.14 888.504 2163.75C887.869 2163.36 887.381 2162.63 887.039 2161.56C886.746 2160.48 886.6 2158.92 886.6 2156.87C886.6 2154.82 886.746 2153.25 887.039 2152.18C887.381 2151.11 887.869 2150.37 888.504 2149.98C889.139 2149.54 890.042 2149.32 891.214 2149.32H919.339ZM980.862 2130.06C982.034 2130.06 982.938 2130.28 983.572 2130.72C984.207 2131.11 984.671 2131.84 984.964 2132.92C985.306 2133.99 985.477 2135.55 985.477 2137.61C985.477 2139.66 985.306 2141.22 984.964 2142.29C984.671 2143.37 984.207 2144.1 983.572 2144.49C982.938 2144.88 982.034 2145.08 980.862 2145.08H964.896V2201.25H990.604V2178.4C990.604 2176.74 991.336 2175.57 992.801 2174.89C994.314 2174.15 996.805 2173.79 1000.27 2173.79C1002.57 2173.79 1004.32 2173.96 1005.54 2174.3C1006.81 2174.59 1007.69 2175.06 1008.18 2175.69C1008.67 2176.33 1008.91 2177.23 1008.91 2178.4V2212.24C1008.91 2213.9 1008.55 2215.12 1007.82 2215.9C1007.08 2216.63 1005.86 2217 1004.15 2217H935.892C934.72 2217 933.816 2216.8 933.182 2216.41C932.547 2216.02 932.059 2215.29 931.717 2214.22C931.424 2213.14 931.277 2211.58 931.277 2209.53C931.277 2207.48 931.424 2205.92 931.717 2204.84C932.059 2203.77 932.547 2203.04 933.182 2202.64C933.816 2202.21 934.72 2201.99 935.892 2201.99H946.585V2145.08H935.892C934.72 2145.08 933.816 2144.88 933.182 2144.49C932.547 2144.1 932.059 2143.37 931.717 2142.29C931.424 2141.22 931.277 2139.66 931.277 2137.61C931.277 2135.55 931.424 2133.99 931.717 2132.92C932.059 2131.84 932.547 2131.11 933.182 2130.72C933.816 2130.28 934.72 2130.06 935.892 2130.06H980.862ZM1067.36 2149.32C1069.02 2149.32 1070.19 2149.69 1070.88 2150.42C1071.61 2151.11 1071.98 2152.28 1071.98 2153.94V2201.99H1092.56C1093.73 2201.99 1094.63 2202.21 1095.27 2202.64C1095.9 2203.04 1096.37 2203.77 1096.66 2204.84C1097 2205.92 1097.17 2207.48 1097.17 2209.53C1097.17 2211.58 1097 2213.14 1096.66 2214.22C1096.37 2215.29 1095.9 2216.02 1095.27 2216.41C1094.63 2216.8 1093.73 2217 1092.56 2217H1033.67C1032.5 2217 1031.59 2216.8 1030.96 2216.41C1030.33 2216.02 1029.84 2215.29 1029.5 2214.22C1029.2 2213.14 1029.06 2211.58 1029.06 2209.53C1029.06 2207.48 1029.2 2205.92 1029.5 2204.84C1029.84 2203.77 1030.33 2203.04 1030.96 2202.64C1031.59 2202.21 1032.5 2201.99 1033.67 2201.99H1053.67V2164.34H1038.06C1036.89 2164.34 1035.99 2164.14 1035.35 2163.75C1034.72 2163.36 1034.23 2162.63 1033.89 2161.56C1033.6 2160.48 1033.45 2158.92 1033.45 2156.87C1033.45 2154.82 1033.6 2153.25 1033.89 2152.18C1034.23 2151.11 1034.72 2150.37 1035.35 2149.98C1035.99 2149.54 1036.89 2149.32 1038.06 2149.32H1067.36ZM1062.6 2117.17C1066.07 2117.17 1068.48 2117.54 1069.85 2118.27C1071.27 2118.95 1071.98 2120.12 1071.98 2121.79V2133.8C1071.98 2135.46 1071.32 2136.65 1070 2137.39C1068.73 2138.07 1066.38 2138.41 1062.97 2138.41C1059.55 2138.41 1057.13 2138.07 1055.72 2137.39C1054.35 2136.65 1053.67 2135.46 1053.67 2133.8V2121.79C1053.67 2120.08 1054.3 2118.88 1055.57 2118.2C1056.84 2117.51 1059.18 2117.17 1062.6 2117.17ZM1134.16 2120.91C1135.82 2120.91 1136.99 2121.27 1137.67 2122C1138.41 2122.69 1138.77 2123.86 1138.77 2125.52V2156.36C1141.26 2153.57 1144.14 2151.45 1147.42 2149.98C1150.69 2148.47 1154.23 2147.71 1158.04 2147.71C1164.43 2147.71 1170.02 2149.28 1174.81 2152.4C1179.59 2155.53 1183.25 2159.77 1185.79 2165.14C1188.33 2170.52 1189.6 2176.52 1189.6 2183.16C1189.6 2189.8 1188.33 2195.81 1185.79 2201.18C1183.25 2206.55 1179.59 2210.8 1174.81 2213.92C1170.02 2217.05 1164.43 2218.61 1158.04 2218.61C1153.4 2218.61 1149.17 2217.54 1145.36 2215.39C1141.56 2213.19 1138.38 2210.14 1135.84 2206.23V2212.39C1135.84 2214.05 1135.48 2215.24 1134.74 2215.97C1134.06 2216.66 1132.89 2217 1131.23 2217H1114.82C1113.65 2217 1112.75 2216.8 1112.11 2216.41C1111.48 2215.97 1110.99 2215.22 1110.65 2214.14C1110.35 2213.07 1110.21 2211.51 1110.21 2209.46C1110.21 2207.41 1110.35 2205.84 1110.65 2204.77C1110.99 2203.69 1111.48 2202.96 1112.11 2202.57C1112.75 2202.18 1113.65 2201.99 1114.82 2201.99H1120.46V2135.92H1113.36C1112.19 2135.92 1111.28 2135.73 1110.65 2135.33C1110.01 2134.94 1109.52 2134.21 1109.18 2133.14C1108.89 2132.06 1108.74 2130.5 1108.74 2128.45C1108.74 2126.4 1108.89 2124.84 1109.18 2123.76C1109.52 2122.69 1110.01 2121.96 1110.65 2121.57C1111.28 2121.13 1112.19 2120.91 1113.36 2120.91H1134.16ZM1155.11 2164.34C1151.98 2164.34 1149.15 2165.07 1146.61 2166.54C1144.07 2168 1142.04 2170.17 1140.53 2173.05C1139.02 2175.89 1138.26 2179.26 1138.26 2183.16C1138.26 2187.07 1139.02 2190.46 1140.53 2193.34C1142.04 2196.17 1144.07 2198.32 1146.61 2199.79C1149.15 2201.25 1151.98 2201.99 1155.11 2201.99C1158.13 2201.99 1160.77 2201.23 1163.02 2199.71C1165.26 2198.15 1166.97 2195.96 1168.14 2193.12C1169.36 2190.29 1169.97 2186.97 1169.97 2183.16C1169.97 2179.35 1169.36 2176.03 1168.14 2173.2C1166.97 2170.37 1165.26 2168.2 1163.02 2166.68C1160.77 2165.12 1158.13 2164.34 1155.11 2164.34ZM1250.69 2130.06C1251.86 2130.06 1252.76 2130.28 1253.4 2130.72C1254.03 2131.11 1254.5 2131.84 1254.79 2132.92C1255.13 2133.99 1255.3 2135.55 1255.3 2137.61C1255.3 2139.66 1255.13 2141.22 1254.79 2142.29C1254.5 2143.37 1254.03 2144.1 1253.4 2144.49C1252.76 2144.88 1251.86 2145.08 1250.69 2145.08H1234.72V2201.25H1260.43V2178.4C1260.43 2176.74 1261.16 2175.57 1262.62 2174.89C1264.14 2174.15 1266.63 2173.79 1270.1 2173.79C1272.39 2173.79 1274.15 2173.96 1275.37 2174.3C1276.64 2174.59 1277.52 2175.06 1278.01 2175.69C1278.49 2176.33 1278.74 2177.23 1278.74 2178.4V2212.24C1278.74 2213.9 1278.37 2215.12 1277.64 2215.9C1276.91 2216.63 1275.69 2217 1273.98 2217H1205.72C1204.54 2217 1203.64 2216.8 1203.01 2216.41C1202.37 2216.02 1201.88 2215.29 1201.54 2214.22C1201.25 2213.14 1201.1 2211.58 1201.1 2209.53C1201.1 2207.48 1201.25 2205.92 1201.54 2204.84C1201.88 2203.77 1202.37 2203.04 1203.01 2202.64C1203.64 2202.21 1204.54 2201.99 1205.72 2201.99H1216.41V2145.08H1205.72C1204.54 2145.08 1203.64 2144.88 1203.01 2144.49C1202.37 2144.1 1201.88 2143.37 1201.54 2142.29C1201.25 2141.22 1201.1 2139.66 1201.1 2137.61C1201.1 2135.55 1201.25 2133.99 1201.54 2132.92C1201.88 2131.84 1202.37 2131.11 1203.01 2130.72C1203.64 2130.28 1204.54 2130.06 1205.72 2130.06H1250.69ZM1331.62 2147.71C1339.04 2147.71 1345.54 2149.23 1351.1 2152.25C1356.67 2155.28 1360.94 2159.48 1363.92 2164.85C1366.95 2170.22 1368.46 2176.33 1368.46 2183.16C1368.46 2190 1366.95 2196.1 1363.92 2201.47C1360.94 2206.84 1356.67 2211.04 1351.1 2214.07C1345.54 2217.1 1339.04 2218.61 1331.62 2218.61C1324.2 2218.61 1317.7 2217.1 1312.14 2214.07C1306.57 2211.04 1302.27 2206.84 1299.25 2201.47C1296.27 2196.1 1294.78 2190 1294.78 2183.16C1294.78 2176.33 1296.27 2170.22 1299.25 2164.85C1302.27 2159.48 1306.57 2155.28 1312.14 2152.25C1317.7 2149.23 1324.2 2147.71 1331.62 2147.71ZM1331.62 2164.34C1328.1 2164.34 1325.05 2165.12 1322.46 2166.68C1319.88 2168.2 1317.87 2170.37 1316.46 2173.2C1315.09 2176.03 1314.41 2179.35 1314.41 2183.16C1314.41 2186.97 1315.09 2190.29 1316.46 2193.12C1317.87 2195.96 1319.88 2198.15 1322.46 2199.71C1325.05 2201.23 1328.1 2201.99 1331.62 2201.99C1335.13 2201.99 1338.19 2201.23 1340.77 2199.71C1343.36 2198.15 1345.34 2195.96 1346.71 2193.12C1348.12 2190.29 1348.83 2186.97 1348.83 2183.16C1348.83 2179.35 1348.12 2176.03 1346.71 2173.2C1345.34 2170.37 1343.36 2168.2 1340.77 2166.68C1338.19 2165.12 1335.13 2164.34 1331.62 2164.34ZM1415.26 2147.71C1419.9 2147.71 1424.12 2148.69 1427.93 2150.64C1431.74 2152.6 1434.92 2155.4 1437.45 2159.07V2153.94C1437.45 2152.28 1437.8 2151.11 1438.48 2150.42C1439.21 2149.69 1440.41 2149.32 1442.07 2149.32H1459.21C1460.38 2149.32 1461.28 2149.54 1461.92 2149.98C1462.55 2150.37 1463.02 2151.11 1463.31 2152.18C1463.65 2153.25 1463.82 2154.82 1463.82 2156.87C1463.82 2158.92 1463.65 2160.48 1463.31 2161.56C1463.02 2162.63 1462.55 2163.36 1461.92 2163.75C1461.28 2164.14 1460.38 2164.34 1459.21 2164.34H1452.83V2216.93C1452.83 2226.5 1449.95 2233.89 1444.19 2239.12C1438.48 2244.39 1429.91 2247.03 1418.48 2247.03C1414.29 2247.03 1409.7 2246.61 1404.71 2245.78C1399.73 2245 1394.97 2243.9 1390.43 2242.49C1388.09 2241.76 1386.92 2240.07 1386.92 2237.43C1386.92 2236.26 1387.23 2234.55 1387.87 2232.31C1388.6 2230.01 1389.41 2228.35 1390.29 2227.33C1391.21 2226.3 1392.29 2225.79 1393.51 2225.79C1394.14 2225.79 1394.73 2225.89 1395.27 2226.08C1404.59 2228.96 1412.09 2230.4 1417.75 2230.4C1423.66 2230.4 1427.93 2229.16 1430.57 2226.67C1433.21 2224.23 1434.52 2220.49 1434.52 2215.46V2207.99C1432.03 2210.68 1429.15 2212.75 1425.88 2214.22C1422.61 2215.68 1419.07 2216.41 1415.26 2216.41C1408.96 2216.41 1403.42 2214.95 1398.64 2212.02C1393.85 2209.04 1390.16 2204.96 1387.58 2199.79C1384.99 2194.56 1383.69 2188.66 1383.69 2182.06C1383.69 2175.47 1384.99 2169.59 1387.58 2164.41C1390.16 2159.19 1393.85 2155.11 1398.64 2152.18C1403.42 2149.2 1408.96 2147.71 1415.26 2147.71ZM1418.19 2164.34C1413.65 2164.34 1410.04 2165.9 1407.35 2169.03C1404.67 2172.1 1403.32 2176.45 1403.32 2182.06C1403.32 2187.68 1404.67 2192.05 1407.35 2195.17C1410.04 2198.25 1413.65 2199.79 1418.19 2199.79C1421.32 2199.79 1424.15 2199.13 1426.69 2197.81C1429.28 2196.44 1431.3 2194.44 1432.77 2191.8C1434.28 2189.12 1435.04 2185.87 1435.04 2182.06C1435.04 2178.25 1434.28 2175.03 1432.77 2172.4C1431.3 2169.71 1429.28 2167.71 1426.69 2166.39C1424.15 2165.02 1421.32 2164.34 1418.19 2164.34Z" fill="#003F52"/>
</g>
<defs>
<radialGradient id="paint0_radial_19_2" cx="0" cy="0" r="1" gradientUnits="userSpaceOnUse" gradientTransform="translate(1.58979e-05 1296) scale(2632.58 2632.58)">
<stop offset="0.011" stop-color="#065A9D"/>
<stop offset="0.281723" stop-color="#0093E6"/>
<stop offset="0.548072" stop-color="#41BFEC"/>
<stop offset="0.798539" stop-color="#FFF1B9"/>
<stop offset="1" stop-color="#FFDE57"/>
<stop offset="1" stop-color="#FFBA15"/>
</radialGradient>
<linearGradient id="paint1_linear_19_2" x1="1336.5" y1="2349" x2="1336.5" y2="243" gradientUnits="userSpaceOnUse">
<stop stop-color="#00A4DF"/>
<stop offset="0.232" stop-color="#31BBEB"/>
<stop offset="0.644" stop-color="#55D5FF"/>
<stop offset="1" stop-color="#D2F5FF"/>
</linearGradient>
<linearGradient id="paint2_linear_19_2" x1="1574.6" y1="814.9" x2="1881.39" y2="508.113" gradientUnits="userSpaceOnUse">
<stop stop-color="#C6EFFD"/>
<stop offset="0.375" stop-color="#B7ECFD"/>
<stop offset="1" stop-color="#95E6FD"/>
</linearGradient>
<linearGradient id="paint3_linear_19_2" x1="1842.75" y1="975.361" x2="1842.75" y2="732.361" gradientUnits="userSpaceOnUse">
<stop stop-color="#42C6EE"/>
<stop offset="0.48" stop-color="#3BC3ED"/>
<stop offset="1" stop-color="#2EBEEA"/>
</linearGradient>
<linearGradient id="paint4_linear_19_2" x1="747" y1="405" x2="983.917" y2="606.906" gradientUnits="userSpaceOnUse">
<stop stop-color="#5A9FD4"/>
<stop offset="1" stop-color="#306998"/>
</linearGradient>
<linearGradient id="paint5_linear_19_2" x1="1014.99" y1="778.795" x2="930" y2="659.683" gradientUnits="userSpaceOnUse">
<stop stop-color="#FFD43B"/>
<stop offset="1" stop-color="#FFE873"/>
</linearGradient>
<clipPath id="clip0_19_2">
<rect width="2592" height="2592" fill="white"/>
</clipPath>
</defs>
</svg>
